<mxfile host="app.diagrams.net" modified="2023-10-15T22:08:40.495Z" agent="Mozilla/5.0 (Macintosh; Intel Mac OS X 10_15_7) AppleWebKit/537.36 (KHTML, like Gecko) Chrome/117.0.0.0 Safari/537.36" etag="Ia7MwKmTJmkslpY_AAGi" version="22.0.4" type="github">
  <diagram name="Page-1" id="f42PMlgl7aR_GrdLnUEU">
    <mxGraphModel dx="954" dy="1460" grid="0" gridSize="10" guides="1" tooltips="1" connect="0" arrows="1" fold="1" page="0" pageScale="1" pageWidth="850" pageHeight="1100" math="0" shadow="0">
      <root>
        <mxCell id="0" />
        <mxCell id="1" parent="0" />
        <mxCell id="p007aW7IsFcY4yizwdRp-1" value="Branch_to_Customer" style="swimlane;fontStyle=1;align=center;verticalAlign=top;childLayout=stackLayout;horizontal=1;startSize=26;horizontalStack=0;resizeParent=1;resizeParentMax=0;resizeLast=0;collapsible=1;marginBottom=0;whiteSpace=wrap;html=1;fontSize=16;" vertex="1" parent="1">
          <mxGeometry x="563" y="-695" width="222" height="109" as="geometry" />
        </mxCell>
        <mxCell id="p007aW7IsFcY4yizwdRp-3" value="" style="line;strokeWidth=1;fillColor=none;align=left;verticalAlign=middle;spacingTop=-1;spacingLeft=3;spacingRight=3;rotatable=0;labelPosition=right;points=[];portConstraint=eastwest;strokeColor=inherit;fontSize=16;" vertex="1" parent="p007aW7IsFcY4yizwdRp-1">
          <mxGeometry y="26" width="222" height="8" as="geometry" />
        </mxCell>
        <mxCell id="p007aW7IsFcY4yizwdRp-4" value="+ Query: int&lt;br&gt;+ Withdraw: void&lt;br&gt;+ Deposit: void" style="text;strokeColor=none;fillColor=none;align=left;verticalAlign=top;spacingLeft=4;spacingRight=4;overflow=hidden;rotatable=0;points=[[0,0.5],[1,0.5]];portConstraint=eastwest;whiteSpace=wrap;html=1;fontSize=16;" vertex="1" parent="p007aW7IsFcY4yizwdRp-1">
          <mxGeometry y="34" width="222" height="75" as="geometry" />
        </mxCell>
        <mxCell id="p007aW7IsFcY4yizwdRp-20" value="" style="edgeStyle=none;curved=1;rounded=0;orthogonalLoop=1;jettySize=auto;html=1;fontSize=12;startSize=8;endSize=8;entryX=1.005;entryY=0.44;entryDx=0;entryDy=0;entryPerimeter=0;" edge="1" parent="1" source="p007aW7IsFcY4yizwdRp-5" target="p007aW7IsFcY4yizwdRp-4">
          <mxGeometry relative="1" as="geometry" />
        </mxCell>
        <mxCell id="p007aW7IsFcY4yizwdRp-5" value="Customer" style="swimlane;fontStyle=1;align=center;verticalAlign=top;childLayout=stackLayout;horizontal=1;startSize=26;horizontalStack=0;resizeParent=1;resizeParentMax=0;resizeLast=0;collapsible=1;marginBottom=0;whiteSpace=wrap;html=1;fontSize=16;" vertex="1" parent="1">
          <mxGeometry x="837" y="-658" width="206" height="60" as="geometry" />
        </mxCell>
        <mxCell id="p007aW7IsFcY4yizwdRp-6" value="+ ID: int" style="text;strokeColor=none;fillColor=none;align=left;verticalAlign=top;spacingLeft=4;spacingRight=4;overflow=hidden;rotatable=0;points=[[0,0.5],[1,0.5]];portConstraint=eastwest;whiteSpace=wrap;html=1;fontSize=16;" vertex="1" parent="p007aW7IsFcY4yizwdRp-5">
          <mxGeometry y="26" width="206" height="26" as="geometry" />
        </mxCell>
        <mxCell id="p007aW7IsFcY4yizwdRp-7" value="" style="line;strokeWidth=1;fillColor=none;align=left;verticalAlign=middle;spacingTop=-1;spacingLeft=3;spacingRight=3;rotatable=0;labelPosition=right;points=[];portConstraint=eastwest;strokeColor=inherit;fontSize=16;" vertex="1" parent="p007aW7IsFcY4yizwdRp-5">
          <mxGeometry y="52" width="206" height="8" as="geometry" />
        </mxCell>
        <mxCell id="p007aW7IsFcY4yizwdRp-10" value="Branch_to_Branch" style="swimlane;fontStyle=1;align=center;verticalAlign=top;childLayout=stackLayout;horizontal=1;startSize=26;horizontalStack=0;resizeParent=1;resizeParentMax=0;resizeLast=0;collapsible=1;marginBottom=0;whiteSpace=wrap;html=1;fontSize=16;" vertex="1" parent="1">
          <mxGeometry x="280" y="-518" width="219" height="88" as="geometry" />
        </mxCell>
        <mxCell id="p007aW7IsFcY4yizwdRp-12" value="" style="line;strokeWidth=1;fillColor=none;align=left;verticalAlign=middle;spacingTop=-1;spacingLeft=3;spacingRight=3;rotatable=0;labelPosition=right;points=[];portConstraint=eastwest;strokeColor=inherit;fontSize=16;" vertex="1" parent="p007aW7IsFcY4yizwdRp-10">
          <mxGeometry y="26" width="219" height="8" as="geometry" />
        </mxCell>
        <mxCell id="p007aW7IsFcY4yizwdRp-13" value="+ Propogate_Withdraw: void&lt;br&gt;+ Propogate_Deposit: void" style="text;strokeColor=none;fillColor=none;align=left;verticalAlign=top;spacingLeft=4;spacingRight=4;overflow=hidden;rotatable=0;points=[[0,0.5],[1,0.5]];portConstraint=eastwest;whiteSpace=wrap;html=1;fontSize=16;" vertex="1" parent="p007aW7IsFcY4yizwdRp-10">
          <mxGeometry y="34" width="219" height="54" as="geometry" />
        </mxCell>
        <mxCell id="p007aW7IsFcY4yizwdRp-14" value="Branch" style="swimlane;fontStyle=1;align=center;verticalAlign=top;childLayout=stackLayout;horizontal=1;startSize=26;horizontalStack=0;resizeParent=1;resizeParentMax=0;resizeLast=0;collapsible=1;marginBottom=0;whiteSpace=wrap;html=1;fontSize=16;" vertex="1" parent="1">
          <mxGeometry x="280" y="-665" width="219" height="83" as="geometry" />
        </mxCell>
        <mxCell id="p007aW7IsFcY4yizwdRp-15" value="+ balance: int&lt;br&gt;+ stubList: map" style="text;strokeColor=none;fillColor=none;align=left;verticalAlign=top;spacingLeft=4;spacingRight=4;overflow=hidden;rotatable=0;points=[[0,0.5],[1,0.5]];portConstraint=eastwest;whiteSpace=wrap;html=1;fontSize=16;" vertex="1" parent="p007aW7IsFcY4yizwdRp-14">
          <mxGeometry y="26" width="219" height="49" as="geometry" />
        </mxCell>
        <mxCell id="p007aW7IsFcY4yizwdRp-16" value="" style="line;strokeWidth=1;fillColor=none;align=left;verticalAlign=middle;spacingTop=-1;spacingLeft=3;spacingRight=3;rotatable=0;labelPosition=right;points=[];portConstraint=eastwest;strokeColor=inherit;fontSize=16;" vertex="1" parent="p007aW7IsFcY4yizwdRp-14">
          <mxGeometry y="75" width="219" height="8" as="geometry" />
        </mxCell>
        <mxCell id="p007aW7IsFcY4yizwdRp-18" value="" style="edgeStyle=none;curved=1;rounded=0;orthogonalLoop=1;jettySize=auto;html=1;fontSize=12;startSize=8;endSize=8;" edge="1" parent="1" source="p007aW7IsFcY4yizwdRp-4" target="p007aW7IsFcY4yizwdRp-14">
          <mxGeometry relative="1" as="geometry" />
        </mxCell>
        <mxCell id="p007aW7IsFcY4yizwdRp-24" value="" style="endArrow=classic;startArrow=classic;html=1;rounded=0;fontSize=12;startSize=8;endSize=8;curved=1;entryX=0.484;entryY=1;entryDx=0;entryDy=0;entryPerimeter=0;exitX=0.479;exitY=0;exitDx=0;exitDy=0;exitPerimeter=0;" edge="1" parent="1" source="p007aW7IsFcY4yizwdRp-10" target="p007aW7IsFcY4yizwdRp-16">
          <mxGeometry width="50" height="50" relative="1" as="geometry">
            <mxPoint x="372" y="-518" as="sourcePoint" />
            <mxPoint x="422" y="-568" as="targetPoint" />
          </mxGeometry>
        </mxCell>
      </root>
    </mxGraphModel>
  </diagram>
</mxfile>
